<svg version="1.1" id="Layer_1" xmlns="http://www.w3.org/2000/svg" xmlns:xlink="http://www.w3.org/1999/xlink" x="0px" y="0px"
	 width="100%" viewBox="0 0 623 624" enable-background="new 0 0 623 624" xml:space="preserve">
<path fill="#FFFFFF" opacity="1.000000" stroke="none" 
	d="
M415.000000,625.000000 
	C276.666718,625.000000 138.833450,625.000000 1.000129,625.000000 
	C1.000086,417.000153 1.000086,209.000290 1.000043,1.000325 
	C208.666443,1.000216 416.332886,1.000216 623.999512,1.000108 
	C623.999634,208.999680 623.999634,416.999359 623.999817,624.999512 
	C554.500000,625.000000 485.000000,625.000000 415.000000,625.000000 
M445.825256,150.257889 
	C443.059143,149.758240 440.293396,148.824539 437.526825,148.822006 
	C353.534882,148.745010 269.542847,148.738235 185.550980,148.846954 
	C182.538605,148.850845 179.527908,150.135635 175.825439,150.838226 
	C164.207672,156.191254 158.628677,165.109573 158.645493,178.052933 
	C158.761627,267.444702 158.709076,356.836670 158.723190,446.228577 
	C158.723557,448.557068 158.747360,450.896637 158.962738,453.212189 
	C159.933029,463.644104 171.681519,475.208649 181.102509,475.778961 
	C182.751785,475.931976 184.401031,476.218506 186.050339,476.218933 
	C269.677795,476.241699 353.305267,476.247559 436.932709,476.192993 
	C438.822388,476.191772 440.711609,475.475922 442.723755,475.279083 
	C442.723755,475.279083 442.935303,475.210022 443.632141,475.251709 
	C444.067505,475.099396 444.502869,474.947052 445.649506,474.835876 
	C458.094543,469.504364 464.372925,460.398254 464.351868,446.530121 
	C464.216766,357.476440 464.287170,268.422485 464.281586,179.368637 
	C464.281464,177.372284 464.232819,175.372955 464.118805,173.380066 
	C463.553009,163.490616 456.060089,153.954346 445.825256,150.257889 
z"/>
<path fill="#5D18EA" opacity="1.000000" stroke="none" 
	d="
M180.399017,475.160767 
	C171.681519,475.208649 159.933029,463.644104 158.962738,453.212189 
	C158.747360,450.896637 158.723557,448.557068 158.723190,446.228577 
	C158.709076,356.836670 158.761627,267.444702 158.645493,178.052933 
	C158.628677,165.109573 164.207672,156.191254 176.647400,150.880402 
	C181.926544,150.623779 186.383575,150.067169 190.840927,150.064453 
	C272.082367,150.014938 353.323853,150.020935 434.565277,150.068176 
	C438.519653,150.070465 442.473755,150.558609 446.427979,150.820511 
	C456.060089,153.954346 463.553009,163.490616 464.118805,173.380066 
	C464.232819,175.372955 464.281464,177.372284 464.281586,179.368637 
	C464.287170,268.422485 464.216766,357.476440 464.351868,446.530121 
	C464.372925,460.398254 458.094543,469.504364 445.113068,474.619171 
	C444.029510,474.671661 443.482422,474.940857 442.935303,475.210022 
	C442.935303,475.210022 442.723755,475.279083 442.147858,475.154388 
	C359.006195,475.007629 276.440430,474.982422 193.874649,474.972015 
	C189.382767,474.971436 184.890900,475.094971 180.399017,475.160767 
M344.051147,235.026581 
	C344.051147,235.026581 344.167419,235.114426 343.399689,235.112503 
	C339.852173,236.728256 340.622620,239.313293 341.999542,242.866440 
	C341.852509,244.894379 341.705475,246.922302 340.966370,249.144501 
	C341.161743,250.446259 341.357117,251.748016 341.797363,253.949188 
	C341.713867,264.945770 341.630341,275.942352 341.138214,286.994110 
	C340.945129,287.163940 340.752014,287.333740 340.558899,287.503540 
	C340.888306,287.690277 341.217682,287.876984 341.787598,288.876587 
	C341.709930,290.560120 341.632233,292.243683 341.212860,293.945007 
	C341.212860,293.945007 340.879456,294.023224 340.133881,294.365051 
	C338.350342,294.565002 336.567627,294.929565 334.783173,294.938080 
	C323.546875,294.991852 312.309875,294.922119 301.074097,295.014679 
	C299.371277,295.028687 297.673645,295.675903 295.367218,296.214233 
	C294.956024,296.146027 294.544800,296.077820 294.121674,295.070862 
	C294.062286,282.605957 294.087036,270.139893 293.914032,257.676544 
	C293.798004,249.316406 289.798859,244.956970 281.084167,243.142456 
	C279.262665,233.454269 276.411163,230.652573 266.545135,229.307419 
	C263.777924,228.930130 260.935608,228.985291 258.130493,229.027084 
	C249.965576,229.148697 243.130249,231.464005 239.615082,240.539001 
	C239.411560,241.154327 239.030228,241.769562 239.029846,242.385010 
	C239.000870,289.339783 238.988937,336.294617 239.074646,383.249237 
	C239.076813,384.434326 240.180283,385.617401 241.177734,387.310181 
	C242.606308,393.639923 247.916977,395.296783 253.175446,397.888000 
	C254.230972,403.385345 256.278717,408.717438 262.316925,409.664368 
	C268.441101,410.624756 274.876404,410.732605 281.041962,410.034668 
	C290.448975,408.969818 293.954132,404.348633 293.978119,394.750641 
	C294.015198,379.918671 294.138214,365.083984 293.893890,350.255920 
	C293.816833,345.578003 295.065826,343.763641 300.039215,343.898712 
	C311.862762,344.219757 323.701355,343.954742 335.533081,344.036438 
	C337.486084,344.049896 339.435242,344.620026 341.749481,345.811340 
	C341.798859,356.571838 341.809814,367.332703 341.907593,378.092773 
	C342.021179,390.588165 343.553406,392.797333 355.015411,397.960510 
	C355.935150,405.569733 359.834869,409.983063 367.863708,410.196259 
	C371.818329,410.301208 375.825073,411.231842 379.702484,410.812042 
	C385.745575,410.157898 392.144348,409.394836 394.775330,401.903809 
	C394.873260,401.293732 394.971191,400.683655 395.026794,399.182281 
	C395.112610,397.108551 395.198425,395.034790 395.795685,392.896027 
	C396.863159,392.913757 397.930664,392.931488 399.229065,393.306183 
	C399.229065,393.306183 399.223785,393.731323 399.127869,394.452393 
	C399.592712,394.898499 400.057556,395.344635 400.893188,395.995880 
	C401.108795,396.211365 401.199615,396.470581 401.056519,397.535309 
	C402.415009,398.654480 403.773468,399.773651 405.689178,401.112762 
	C406.480255,401.679871 407.271301,402.246979 408.177612,403.311096 
	C408.420654,403.536591 408.663727,403.762085 409.464752,404.361267 
	C415.831177,415.029266 431.339691,415.577820 439.142487,411.063416 
	C453.987457,402.474670 451.357605,381.896179 437.455261,373.732788 
	C434.771332,368.712891 430.442902,366.074921 424.990479,364.909851 
	C418.233948,363.466125 411.861298,364.726990 404.930511,367.337494 
	C404.655670,367.921722 404.380829,368.505951 404.002380,369.024750 
	C404.002380,369.024750 404.091888,369.109009 403.328125,369.039551 
	C401.050568,371.788574 398.773010,374.537628 396.983795,376.697235 
	C396.983795,376.239899 396.983917,374.583282 396.983795,372.926666 
	C396.981476,335.472443 397.004425,298.018127 396.900421,260.564178 
	C396.895294,258.723358 395.780914,256.885620 395.065613,254.278671 
	C394.692169,249.634140 391.862823,246.839783 387.912964,244.312500 
	C387.302948,244.175568 386.692932,244.038620 385.458435,243.895752 
	C384.988647,243.541275 384.518860,243.186783 384.014465,242.062469 
	C383.105835,238.110306 383.007019,233.885437 378.938202,231.298431 
	C371.547119,226.599045 363.396118,226.396454 355.201294,227.374863 
	C352.714081,227.671829 350.454376,229.874466 347.835541,231.623352 
	C347.402252,231.829971 346.968964,232.036575 345.741455,232.158493 
	C345.203949,233.155579 344.666473,234.152664 344.051147,235.026581 
z"/>
<path fill="#5626B5" opacity="1.000000" stroke="none" 
	d="
M446.126617,150.539200 
	C442.473755,150.558609 438.519653,150.070465 434.565277,150.068176 
	C353.323853,150.020935 272.082367,150.014938 190.840927,150.064453 
	C186.383575,150.067169 181.926544,150.623779 176.992889,150.873016 
	C179.527908,150.135635 182.538605,148.850845 185.550980,148.846954 
	C269.542847,148.738235 353.534882,148.745010 437.526825,148.822006 
	C440.293396,148.824539 443.059143,149.758240 446.126617,150.539200 
z"/>
<path fill="#5626B5" opacity="1.000000" stroke="none" 
	d="
M180.750763,475.469849 
	C184.890900,475.094971 189.382767,474.971436 193.874649,474.972015 
	C276.440430,474.982422 359.006195,475.007629 442.086487,475.061523 
	C440.711609,475.475922 438.822388,476.191772 436.932709,476.192993 
	C353.305267,476.247559 269.677795,476.241699 186.050339,476.218933 
	C184.401031,476.218506 182.751785,475.931976 180.750763,475.469849 
z"/>
<path fill="#5626B5" opacity="1.000000" stroke="none" 
	d="
M443.283722,475.230865 
	C443.482422,474.940857 444.029510,474.671661 444.757446,474.598572 
	C444.502869,474.947052 444.067505,475.099396 443.283722,475.230865 
z"/>
<path fill="#FCFAFE" opacity="1.000000" stroke="none" 
	d="
M346.535675,232.243195 
	C346.968964,232.036575 347.402252,231.829971 348.364868,231.379517 
	C353.609314,230.440567 358.319855,229.194641 363.040527,229.154800 
	C376.560272,229.040726 380.308533,232.280487 382.791046,245.369385 
	C382.762909,245.600266 382.968597,246.017502 382.876007,246.259827 
	C382.800690,246.674225 382.817963,246.846298 382.687805,247.385513 
	C382.519043,290.224854 382.492676,332.697052 382.488739,375.169250 
	C382.488495,377.815613 382.664581,380.462006 382.690521,383.430389 
	C382.676575,384.181824 382.730713,384.611267 382.580933,385.321991 
	C380.746277,393.255341 375.435181,396.455048 368.191772,396.980347 
	C363.770264,397.301056 359.314880,397.155426 354.874725,397.219238 
	C343.553406,392.797333 342.021179,390.588165 341.907593,378.092773 
	C341.809814,367.332703 341.798859,356.571838 341.733215,344.935425 
	C341.716980,339.480865 341.716980,334.902222 341.716980,330.389343 
	C321.244812,330.389343 301.496918,330.389343 281.118774,330.389343 
	C281.118774,332.435944 281.122375,334.217041 281.118225,335.998138 
	C281.082764,351.146759 281.208527,366.298157 280.952026,381.443054 
	C280.782654,391.443665 276.866058,395.695343 266.988861,396.851257 
	C262.392120,397.389221 257.697418,397.090424 253.047119,397.170929 
	C247.916977,395.296783 242.606308,393.639923 240.969070,386.599121 
	C240.594147,383.734833 240.282288,381.581543 240.283020,379.428345 
	C240.298965,333.027069 240.349854,286.625763 240.393982,240.224487 
	C243.130249,231.464005 249.965576,229.148697 258.130493,229.027084 
	C260.935608,228.985291 263.777924,228.930130 266.545135,229.307419 
	C276.411163,230.652573 279.262665,233.454269 281.157684,243.863007 
	C281.280945,261.545105 281.330658,278.506653 281.298187,295.535492 
	C281.216003,295.602783 281.546234,295.679413 281.984375,295.917542 
	C286.326202,296.106995 290.229889,296.058289 294.133606,296.009583 
	C294.544800,296.077820 294.956024,296.146027 296.134247,296.214478 
	C311.600677,296.101746 326.300110,295.988739 341.299438,295.780884 
	C341.584442,295.099731 341.569489,294.513489 341.554535,293.927216 
	C341.632233,292.243683 341.709930,290.560120 341.776520,288.188751 
	C341.692566,287.313568 341.619690,287.126251 341.546844,286.938934 
	C341.630341,275.942352 341.713867,264.945770 341.829895,253.106354 
	C341.761139,251.159103 341.659821,250.054672 341.558472,248.950241 
	C341.705475,246.922302 341.852509,244.894379 342.173279,242.171036 
	C342.953796,239.355225 343.560608,237.234833 344.167419,235.114426 
	C344.167419,235.114426 344.051147,235.026581 344.378754,234.946930 
	C345.316132,233.992569 345.925903,233.117889 346.535675,232.243195 
z"/>
<path fill="#3D1391" opacity="1.000000" stroke="none" 
	d="
M253.111282,397.529480 
	C257.697418,397.090424 262.392120,397.389221 266.988861,396.851257 
	C276.866058,395.695343 280.782654,391.443665 280.952026,381.443054 
	C281.208527,366.298157 281.082764,351.146759 281.118225,335.998138 
	C281.122375,334.217041 281.118774,332.435944 281.118774,330.389343 
	C301.496918,330.389343 321.244812,330.389343 341.716980,330.389343 
	C341.716980,334.902222 341.716980,339.480865 341.551575,344.496216 
	C339.435242,344.620026 337.486084,344.049896 335.533081,344.036438 
	C323.701355,343.954742 311.862762,344.219757 300.039215,343.898712 
	C295.065826,343.763641 293.816833,345.578003 293.893890,350.255920 
	C294.138214,365.083984 294.015198,379.918671 293.978119,394.750641 
	C293.954132,404.348633 290.448975,408.969818 281.041962,410.034668 
	C274.876404,410.732605 268.441101,410.624756 262.316925,409.664368 
	C256.278717,408.717438 254.230972,403.385345 253.111282,397.529480 
z"/>
<path fill="#3A0E90" opacity="1.000000" stroke="none" 
	d="
M354.945068,397.589905 
	C359.314880,397.155426 363.770264,397.301056 368.191772,396.980347 
	C375.435181,396.455048 380.746277,393.255341 382.921692,385.113831 
	C383.975494,382.919769 384.925781,381.215973 384.929108,379.510376 
	C385.013367,336.285278 385.015656,293.059967 384.915375,249.834961 
	C384.912415,248.560974 383.645935,247.289917 382.968597,246.017502 
	C382.968597,246.017502 382.762909,245.600266 382.917694,245.062347 
	C383.398010,243.960373 383.723541,243.396347 384.049072,242.832306 
	C384.518860,243.186783 384.988647,243.541275 385.904480,244.156601 
	C386.888184,244.562134 387.425842,244.706802 387.963531,244.851471 
	C391.862823,246.839783 394.692169,249.634140 395.073792,255.123398 
	C395.079987,264.133270 395.076416,272.298431 395.076385,280.463593 
	C395.076263,313.624329 395.071747,346.785095 395.090240,379.945831 
	C395.091461,382.162140 394.334900,384.848267 397.859863,385.578857 
	C397.958344,386.079224 397.934052,386.364899 397.520935,386.810608 
	C396.560394,388.971222 395.922333,390.966156 395.284271,392.961060 
	C395.198425,395.034790 395.112610,397.108551 394.798584,399.769897 
	C394.466095,400.895752 394.361786,401.434021 394.257477,401.972260 
	C392.144348,409.394836 385.745575,410.157898 379.702484,410.812042 
	C375.825073,411.231842 371.818329,410.301208 367.863708,410.196259 
	C359.834869,409.983063 355.935150,405.569733 354.945068,397.589905 
z"/>
<path fill="#1DE4AA" opacity="1.000000" stroke="none" 
	d="
M397.843384,386.644928 
	C397.934052,386.364899 397.958344,386.079224 397.985748,385.137878 
	C398.172852,378.617889 400.198914,373.497040 404.091888,369.109009 
	C404.091888,369.109009 404.002380,369.024750 404.343933,368.952881 
	C405.002045,368.365234 405.318634,367.849457 405.635223,367.333649 
	C411.861298,364.726990 418.233948,363.466125 424.990479,364.909851 
	C430.442902,366.074921 434.771332,368.712891 437.781891,374.299500 
	C438.528290,376.630402 439.018066,378.381226 439.356537,380.160828 
	C441.611725,392.018005 434.901428,402.324890 423.295197,403.808594 
	C418.656921,404.401581 413.799744,403.282562 408.805328,402.849091 
	C408.399750,402.774933 408.231049,402.794525 408.062347,402.814117 
	C407.271301,402.246979 406.480255,401.679871 405.283569,400.708313 
	C403.640503,399.127106 402.403107,397.950287 401.165680,396.773499 
	C401.199615,396.470581 401.108795,396.211365 400.641876,395.582214 
	C400.001648,394.689484 399.612701,394.210419 399.223785,393.731323 
	C399.223785,393.731323 399.229065,393.306183 399.155396,392.737610 
	C398.668976,390.327698 398.256195,388.486298 397.843384,386.644928 
z"/>
<path fill="#390E8F" opacity="1.000000" stroke="none" 
	d="
M294.127625,295.540222 
	C290.229889,296.058289 286.326202,296.106995 282.044464,295.845520 
	C281.666443,295.535339 281.380402,295.468201 281.380371,295.468201 
	C281.330658,278.506653 281.280945,261.545105 281.374146,244.134705 
	C289.798859,244.956970 293.798004,249.316406 293.914032,257.676544 
	C294.087036,270.139893 294.062286,282.605957 294.127625,295.540222 
z"/>
<path fill="#361691" opacity="1.000000" stroke="none" 
	d="
M409.042206,402.942841 
	C413.799744,403.282562 418.656921,404.401581 423.295197,403.808594 
	C434.901428,402.324890 441.611725,392.018005 439.356537,380.160828 
	C439.018066,378.381226 438.528290,376.630402 438.076477,374.482025 
	C451.357605,381.896179 453.987457,402.474670 439.142487,411.063416 
	C431.339691,415.577820 415.831177,415.029266 409.227264,403.914368 
	C409.007263,403.292572 409.024719,403.117706 409.042206,402.942841 
z"/>
<path fill="#6834D7" opacity="1.000000" stroke="none" 
	d="
M403.710022,369.074280 
	C400.198914,373.497040 398.172852,378.617889 397.929352,384.928833 
	C394.334900,384.848267 395.091461,382.162140 395.090240,379.945831 
	C395.071747,346.785095 395.076263,313.624329 395.076385,280.463593 
	C395.076416,272.298431 395.079987,264.133270 395.132477,255.507294 
	C395.780914,256.885620 396.895294,258.723358 396.900421,260.564178 
	C397.004425,298.018127 396.981476,335.472443 396.983795,372.926666 
	C396.983917,374.583282 396.983795,376.239899 396.983795,376.697235 
	C398.773010,374.537628 401.050568,371.788574 403.710022,369.074280 
z"/>
<path fill="#5426B7" opacity="1.000000" stroke="none" 
	d="
M240.004532,240.381744 
	C240.349854,286.625763 240.298965,333.027069 240.283020,379.428345 
	C240.282288,381.581543 240.594147,383.734833 240.765274,386.344757 
	C240.180283,385.617401 239.076813,384.434326 239.074646,383.249237 
	C238.988937,336.294617 239.000870,289.339783 239.029846,242.385010 
	C239.030228,241.769562 239.411560,241.154327 240.004532,240.381744 
z"/>
<path fill="#6834D7" opacity="1.000000" stroke="none" 
	d="
M384.031799,242.447388 
	C383.723541,243.396347 383.398010,243.960373 382.945831,244.831467 
	C380.308533,232.280487 376.560272,229.040726 363.040527,229.154800 
	C358.319855,229.194641 353.609314,230.440567 348.492310,231.169983 
	C350.454376,229.874466 352.714081,227.671829 355.201294,227.374863 
	C363.396118,226.396454 371.547119,226.599045 378.938202,231.298431 
	C383.007019,233.885437 383.105835,238.110306 384.031799,242.447388 
z"/>
<path fill="#5627B6" opacity="1.000000" stroke="none" 
	d="
M340.999512,295.875732 
	C326.300110,295.988739 311.600677,296.101746 296.437439,296.122498 
	C297.673645,295.675903 299.371277,295.028687 301.074097,295.014679 
	C312.309875,294.922119 323.546875,294.991852 334.783173,294.938080 
	C336.567627,294.929565 338.350342,294.565002 340.538818,294.502136 
	C340.962311,295.051422 340.980896,295.463593 340.999512,295.875732 
z"/>
<path fill="#6834D7" opacity="1.000000" stroke="none" 
	d="
M343.783569,235.113464 
	C343.560608,237.234833 342.953796,239.355225 342.100098,241.738632 
	C340.622620,239.313293 339.852173,236.728256 343.783569,235.113464 
z"/>
<path fill="#6834D7" opacity="1.000000" stroke="none" 
	d="
M397.520935,386.810608 
	C398.256195,388.486298 398.668976,390.327698 399.039948,392.559143 
	C397.930664,392.931488 396.863159,392.913757 395.539978,392.928528 
	C395.922333,390.966156 396.560394,388.971222 397.520935,386.810608 
z"/>
<path fill="#6834D7" opacity="1.000000" stroke="none" 
	d="
M341.262421,249.047363 
	C341.659821,250.054672 341.761139,251.159103 341.707458,252.656647 
	C341.357117,251.748016 341.161743,250.446259 341.262421,249.047363 
z"/>
<path fill="#6834D7" opacity="1.000000" stroke="none" 
	d="
M401.111084,397.154419 
	C402.403107,397.950287 403.640503,399.127106 405.004944,400.598358 
	C403.773468,399.773651 402.415009,398.654480 401.111084,397.154419 
z"/>
<path fill="#6834D7" opacity="1.000000" stroke="none" 
	d="
M346.138550,232.200836 
	C345.925903,233.117889 345.316132,233.992569 344.417664,235.008514 
	C344.666473,234.152664 345.203949,233.155579 346.138550,232.200836 
z"/>
<path fill="#6834D7" opacity="1.000000" stroke="none" 
	d="
M387.938232,244.581985 
	C387.425842,244.706802 386.888184,244.562134 386.216705,244.159576 
	C386.692932,244.038620 387.302948,244.175568 387.938232,244.581985 
z"/>
<path fill="#6834D7" opacity="1.000000" stroke="none" 
	d="
M394.516418,401.938049 
	C394.361786,401.434021 394.466095,400.895752 394.819763,400.215546 
	C394.971191,400.683655 394.873260,401.293732 394.516418,401.938049 
z"/>
<path fill="#6834D7" opacity="1.000000" stroke="none" 
	d="
M405.282867,367.335571 
	C405.318634,367.849457 405.002045,368.365234 404.395752,368.985596 
	C404.380829,368.505951 404.655670,367.921722 405.282867,367.335571 
z"/>
<path fill="#6834D7" opacity="1.000000" stroke="none" 
	d="
M341.299438,295.780884 
	C340.980896,295.463593 340.962311,295.051422 340.911591,294.331238 
	C340.879456,294.023224 341.212860,293.945007 341.383698,293.936096 
	C341.569489,294.513489 341.584442,295.099731 341.299438,295.780884 
z"/>
<path fill="#6834D7" opacity="1.000000" stroke="none" 
	d="
M399.175842,394.091858 
	C399.612701,394.210419 400.001648,394.689484 400.456482,395.479675 
	C400.057556,395.344635 399.592712,394.898499 399.175842,394.091858 
z"/>
<path fill="#6834D7" opacity="1.000000" stroke="none" 
	d="
M341.342529,286.966522 
	C341.619690,287.126251 341.692566,287.313568 341.656250,287.782288 
	C341.217682,287.876984 340.888306,287.690277 340.558899,287.503540 
	C340.752014,287.333740 340.945129,287.163940 341.342529,286.966522 
z"/>
<path fill="#6834D7" opacity="1.000000" stroke="none" 
	d="
M408.805328,402.849091 
	C409.024719,403.117706 409.007263,403.292572 408.948303,403.727509 
	C408.663727,403.762085 408.420654,403.536591 408.119995,403.062622 
	C408.231049,402.794525 408.399750,402.774933 408.805328,402.849091 
z"/>
<path fill="#331574" opacity="1.000000" stroke="none" 
	d="
M382.876007,246.259827 
	C383.645935,247.289917 384.912415,248.560974 384.915375,249.834961 
	C385.015656,293.059967 385.013367,336.285278 384.929108,379.510376 
	C384.925781,381.215973 383.975494,382.919769 383.125610,384.832520 
	C382.730713,384.611267 382.676575,384.181824 382.825989,382.976196 
	C383.054443,337.795715 383.080536,293.391388 383.093018,248.987091 
	C383.093201,248.330872 382.924896,247.674606 382.835205,247.018356 
	C382.817963,246.846298 382.800690,246.674225 382.876007,246.259827 
z"/>
<path fill="#6834D7" opacity="1.000000" stroke="none" 
	d="
M382.687775,247.385513 
	C382.924896,247.674606 383.093201,248.330872 383.093018,248.987091 
	C383.080536,293.391388 383.054443,337.795715 382.894104,382.654175 
	C382.664581,380.462006 382.488495,377.815613 382.488739,375.169250 
	C382.492676,332.697052 382.519043,290.224854 382.687775,247.385513 
z"/>
<path fill="#5D18EA" opacity="1.000000" stroke="none" 
	d="
M281.298218,295.535492 
	C281.380402,295.468201 281.666443,295.535339 281.606323,295.607361 
	C281.546234,295.679413 281.216003,295.602783 281.298218,295.535492 
z"/>
</svg>